<?xml version="1.0"?>
<svg width="100" height="100" xmlns="http://www.w3.org/2000/svg" class="uil-poi" preserveAspectRatio="xMidYMid">

 <g>
  <title>background</title>
  <rect fill="none" id="canvas_background" height="402" width="582" y="-1" x="-1"/>
 </g>
 <g>
  <title>Layer 1</title>
  <rect id="svg_1" class="bk" fill="none" height="100" width="100" y="0" x="0"/>
  <g stroke="null" id="svg_2">
   <g stroke="null" id="svg_3">
    <g stroke="null" id="svg_4">
     <path stroke="null" id="svg_5" fill="#0c63ee" d="m91.5,42.907276c0,-23.089094 -18.561821,-41.95273 -41.5,-41.95273s-41.5,18.712729 -41.5,41.95273c0,20.0709 14.034538,36.972721 32.747269,40.896358l8.752731,15.241814l8.75272,-15.241814c18.712727,-4.074554 32.74728,-20.825459 32.74728,-40.896358z"/>
    </g>
	<path stroke="#fff" stroke-width="5" fill-opacity="000" stroke-opacity="null" id="svg_5" d="m91.5,42.907276c0,-23.089094 -18.561821,-41.95273 -41.5,-41.95273s-41.5,18.712729 -41.5,41.95273c0,20.0709 14.034538,36.972721 32.747269,40.896358l8.752731,15.241814l8.75272,-15.241814c18.712727,-4.074554 32.74728,-20.825459 32.74728,-40.896358z"/>
   </g>
  </g>
 </g>
</svg>